<svg xmlns="http://www.w3.org/2000/svg" width="350" height="300"><path d="M204,176L180,139L174,174Z" fill="#e7e7e6" stroke="#e7e7e6" stroke-width="1.51"/><path d="M174,174L172,212L204,176Z" fill="#e2e2e2" stroke="#e2e2e2" stroke-width="1.51"/><path d="M180,139L146,185L174,174Z" fill="#e9e9e9" stroke="#e9e9e9" stroke-width="1.51"/><path d="M204,176L224,115L180,139Z" fill="#e7e7e7" stroke="#e7e7e7" stroke-width="1.51"/><path d="M146,185L172,212L174,174Z" fill="#e3e4e3" stroke="#e3e4e3" stroke-width="1.51"/><path d="M180,139L125,112L146,185Z" fill="#ededed" stroke="#ededed" stroke-width="1.51"/><path d="M161,67L125,112L180,139Z" fill="#efefef" stroke="#efefef" stroke-width="1.51"/><path d="M204,176L266,192L224,115Z" fill="#dedede" stroke="#dedede" stroke-width="1.51"/><path d="M223,242L266,192L204,176Z" fill="#d4d6d4" stroke="#d4d6d4" stroke-width="1.51"/><path d="M172,212L223,242L204,176Z" fill="#d9dad9" stroke="#d9dad9" stroke-width="1.51"/><path d="M146,185L118,213L172,212Z" fill="#e1e2e1" stroke="#e1e2e1" stroke-width="1.51"/><path d="M172,212L174,254L223,242Z" fill="#d6d7d6" stroke="#d6d7d6" stroke-width="1.51"/><path d="M89,153L118,213L146,185Z" fill="#e7e7e7" stroke="#e7e7e7" stroke-width="1.51"/><path d="M293,124L258,96L224,115Z" fill="#dcdddc" stroke="#dcdddc" stroke-width="1.51"/><path d="M224,115L161,67L180,139Z" fill="#ebebeb" stroke="#ebebeb" stroke-width="1.51"/><path d="M206,57L161,67L224,115Z" fill="#eaebea" stroke="#eaebea" stroke-width="1.51"/><path d="M141,257L174,254L172,212Z" fill="#d8d9d8" stroke="#d8d9d8" stroke-width="1.51"/><path d="M125,112L89,153L146,185Z" fill="#eeeeee" stroke="#eeeeee" stroke-width="1.51"/><path d="M85,117L89,153L125,112Z" fill="#f0f0f0" stroke="#f0f0f0" stroke-width="1.51"/><path d="M258,96L206,57L224,115Z" fill="#e3e4e3" stroke="#e3e4e3" stroke-width="1.51"/><path d="M266,192L293,124L224,115Z" fill="#dbdcdb" stroke="#dbdcdb" stroke-width="1.51"/><path d="M118,213L141,257L172,212Z" fill="#dcdddc" stroke="#dcdddc" stroke-width="1.51"/><path d="M113,70L85,117L125,112Z" fill="#f1f1f1" stroke="#f1f1f1" stroke-width="1.51"/><path d="M266,192L315,157L293,124Z" fill="#d3d4d3" stroke="#d3d4d3" stroke-width="1.51"/><path d="M223,242L281,229L266,192Z" fill="#cbcdcb" stroke="#cbcdcb" stroke-width="1.51"/><path d="M280,262L281,229L223,242Z" fill="#c5c8c5" stroke="#c5c8c5" stroke-width="1.51"/><path d="M161,67L113,70L125,112Z" fill="#f0f0f0" stroke="#f0f0f0" stroke-width="1.51"/><path d="M114,16L113,70L161,67Z" fill="#f2f2f2" stroke="#f2f2f2" stroke-width="1.51"/><path d="M281,229L315,157L266,192Z" fill="#cccdcc" stroke="#cccdcc" stroke-width="1.51"/><path d="M174,254L224,281L223,242Z" fill="#cdcfcd" stroke="#cdcfcd" stroke-width="1.51"/><path d="M229,311L224,281L161,328Z" fill="#b0b3b1" stroke="#b0b3b1" stroke-width="1.51"/><path d="M206,57L175,29L161,67Z" fill="#efefef" stroke="#efefef" stroke-width="1.51"/><path d="M258,96L220,35L206,57Z" fill="#e5e6e5" stroke="#e5e6e5" stroke-width="1.51"/><path d="M266,12L220,35L258,96Z" fill="#e1e2e1" stroke="#e1e2e1" stroke-width="1.51"/><path d="M220,35L175,29L206,57Z" fill="#ececec" stroke="#ececec" stroke-width="1.51"/><path d="M281,229L317,237L315,157Z" fill="#c5c7c5" stroke="#c5c7c5" stroke-width="1.51"/><path d="M224,281L280,262L223,242Z" fill="#c6c7c6" stroke="#c6c7c6" stroke-width="1.51"/><path d="M42,209L65,220L89,153Z" fill="#e6e7e6" stroke="#e6e7e6" stroke-width="1.51"/><path d="M89,153L65,220L118,213Z" fill="#e5e6e5" stroke="#e5e6e5" stroke-width="1.51"/><path d="M118,213L87,278L141,257Z" fill="#d8d9d8" stroke="#d8d9d8" stroke-width="1.51"/><path d="M293,124L329,89L258,96Z" fill="#d6d7d6" stroke="#d6d7d6" stroke-width="1.51"/><path d="M315,157L328,105L293,124Z" fill="#d0d2d0" stroke="#d0d2d0" stroke-width="1.51"/><path d="M280,262L317,237L281,229Z" fill="#c0c2c0" stroke="#c0c2c0" stroke-width="1.51"/><path d="M315,157L357,129L328,105Z" fill="#c1c3c2" stroke="#c1c3c2" stroke-width="1.51"/><path d="M113,70L73,57L85,117Z" fill="#f2f2f2" stroke="#f2f2f2" stroke-width="1.51"/><path d="M7,178L42,209L89,153Z" fill="#ebebeb" stroke="#ebebeb" stroke-width="1.51"/><path d="M114,16L73,57L113,70Z" fill="#f3f3f3" stroke="#f3f3f3" stroke-width="1.51"/><path d="M328,105L329,89L293,124Z" fill="#cdd0ce" stroke="#cdd0ce" stroke-width="1.51"/><path d="M161,328L174,254L141,257Z" fill="#cccdcc" stroke="#cccdcc" stroke-width="1.51"/><path d="M22,111L89,153L85,117Z" fill="#f1f1f1" stroke="#f1f1f1" stroke-width="1.51"/><path d="M224,281L229,311L280,262Z" fill="#b9bcba" stroke="#b9bcba" stroke-width="1.51"/><path d="M280,262L337,268L317,237Z" fill="#b8bbb8" stroke="#b8bbb8" stroke-width="1.51"/><path d="M161,328L224,281L174,254Z" fill="#c2c5c3" stroke="#c2c5c3" stroke-width="1.51"/><path d="M87,278L118,213L65,220Z" fill="#dcdddc" stroke="#dcdddc" stroke-width="1.51"/><path d="M25,259L87,278L65,220Z" fill="#dadbda" stroke="#dadbda" stroke-width="1.51"/><path d="M175,29L114,16L161,67Z" fill="#f2f2f2" stroke="#f2f2f2" stroke-width="1.51"/><path d="M220,35L170,-1L175,29Z" fill="#efefef" stroke="#efefef" stroke-width="1.51"/><path d="M234,-12L170,-1L220,35Z" fill="#eaeaea" stroke="#eaeaea" stroke-width="1.51"/><path d="M170,-1L114,16L175,29Z" fill="#f2f2f2" stroke="#f2f2f2" stroke-width="1.51"/><path d="M329,89L266,12L258,96Z" fill="#dadbda" stroke="#dadbda" stroke-width="1.51"/><path d="M392,154L357,129L315,157Z" fill="#b0b3b2" stroke="#b0b3b2" stroke-width="1.51"/><path d="M328,105L369,98L329,89Z" fill="#bcbebd" stroke="#bcbebd" stroke-width="1.51"/><path d="M110,322L161,328L141,257Z" fill="#babdbc" stroke="#babdbc" stroke-width="1.51"/><path d="M114,16L66,40L73,57Z" fill="#f4f4f4" stroke="#f4f4f4" stroke-width="1.51"/><path d="M73,57L22,111L85,117Z" fill="#f3f3f3" stroke="#f3f3f3" stroke-width="1.51"/><path d="M15,91L22,111L73,57Z" fill="#f4f4f4" stroke="#f4f4f4" stroke-width="1.51"/><path d="M266,12L234,-12L220,35Z" fill="#e4e4e4" stroke="#e4e4e4" stroke-width="1.51"/><path d="M87,278L110,322L141,257Z" fill="#c9cbc9" stroke="#c9cbc9" stroke-width="1.51"/><path d="M87,311L110,322L87,278Z" fill="#bbbebd" stroke="#bbbebd" stroke-width="1.51"/><path d="M317,237L379,229L315,157Z" fill="#b0b4b1" stroke="#b0b4b1" stroke-width="1.51"/><path d="M291,313L337,268L280,262Z" fill="#b1b4b1" stroke="#b1b4b1" stroke-width="1.51"/><path d="M31,316L87,311L87,278Z" fill="#bec1bf" stroke="#bec1bf" stroke-width="1.51"/><path d="M42,209L25,259L65,220Z" fill="#e0e1e0" stroke="#e0e1e0" stroke-width="1.51"/><path d="M22,111L7,178L89,153Z" fill="#f1f1f1" stroke="#f1f1f1" stroke-width="1.51"/><path d="M229,311L291,313L280,262Z" fill="#adb0ae" stroke="#adb0ae" stroke-width="1.51"/><path d="M315,328L291,313L307,351Z" fill="#8b8f8d" stroke="#8b8f8d" stroke-width="1.51"/><path d="M22,111L-20,135L7,178Z" fill="#f1f1f1" stroke="#f1f1f1" stroke-width="1.51"/><path d="M35,37L15,91L73,57Z" fill="#f5f5f5" stroke="#f5f5f5" stroke-width="1.51"/><path d="M66,40L35,37L73,57Z" fill="#f5f5f5" stroke="#f5f5f5" stroke-width="1.51"/><path d="M114,16L108,-11L66,40Z" fill="#f4f4f4" stroke="#f4f4f4" stroke-width="1.51"/><path d="M170,-1L108,-11L114,16Z" fill="#f3f3f2" stroke="#f3f3f2" stroke-width="1.51"/><path d="M185,-63L108,-11L170,-1Z" fill="#f1f1f1" stroke="#f1f1f1" stroke-width="1.51"/><path d="M329,89L336,29L266,12Z" fill="#d5d7d5" stroke="#d5d7d5" stroke-width="1.51"/><path d="M357,129L369,98L328,105Z" fill="#b5b7b6" stroke="#b5b7b6" stroke-width="1.51"/><path d="M392,154L369,98L357,129Z" fill="#a5a9a7" stroke="#a5a9a7" stroke-width="1.51"/><path d="M-8,212L25,259L42,209Z" fill="#e0e1e0" stroke="#e0e1e0" stroke-width="1.51"/><path d="M369,98L336,29L329,89Z" fill="#bbbebd" stroke="#bbbebd" stroke-width="1.51"/><path d="M266,12L273,-29L234,-12Z" fill="#e0e0e0" stroke="#e0e0e0" stroke-width="1.51"/><path d="M48,-15L35,37L66,40Z" fill="#f6f6f6" stroke="#f6f6f6" stroke-width="1.51"/><path d="M337,268L379,229L317,237Z" fill="#a3a7a5" stroke="#a3a7a5" stroke-width="1.51"/><path d="M374,287L379,229L337,268Z" fill="#939896" stroke="#939896" stroke-width="1.51"/><path d="M379,229L392,154L315,157Z" fill="#a5a8a7" stroke="#a5a8a7" stroke-width="1.51"/><path d="M7,178L-8,212L42,209Z" fill="#e6e6e5" stroke="#e6e6e5" stroke-width="1.51"/><path d="M-41,177L-8,212L7,178Z" fill="#e8e8e7" stroke="#e8e8e7" stroke-width="1.51"/><path d="M234,-12L222,-56L170,-1Z" fill="#e9e9e9" stroke="#e9e9e9" stroke-width="1.51"/><path d="M310,-10L273,-29L266,12Z" fill="#dbdcdb" stroke="#dbdcdb" stroke-width="1.51"/><path d="M336,29L310,-10L266,12Z" fill="#d7d8d7" stroke="#d7d8d7" stroke-width="1.51"/><path d="M291,313L315,328L337,268Z" fill="#9ba09d" stroke="#9ba09d" stroke-width="1.51"/><path d="M307,351L291,313L282,372Z" fill="#818785" stroke="#818785" stroke-width="1.51"/><path d="M161,328L184,370L229,311Z" fill="#9ca09f" stroke="#9ca09f" stroke-width="1.51"/><path d="M110,322L121,358L161,328Z" fill="#a1a5a4" stroke="#a1a5a4" stroke-width="1.51"/><path d="M87,311L121,358L110,322Z" fill="#a6aaa9" stroke="#a6aaa9" stroke-width="1.51"/><path d="M58,391L121,358L87,311Z" fill="#959a99" stroke="#959a99" stroke-width="1.51"/><path d="M121,358L184,370L161,328Z" fill="#949898" stroke="#949898" stroke-width="1.51"/><path d="M15,91L-20,135L22,111Z" fill="#f2f2f2" stroke="#f2f2f2" stroke-width="1.51"/><path d="M-9,58L-20,135L15,91Z" fill="#f3f3f2" stroke="#f3f3f2" stroke-width="1.51"/><path d="M265,-78L222,-56L273,-29Z" fill="#e0e0df" stroke="#e0e0df" stroke-width="1.51"/><path d="M273,-29L222,-56L234,-12Z" fill="#e2e3e1" stroke="#e2e3e1" stroke-width="1.51"/><path d="M222,-56L185,-63L170,-1Z" fill="#edecec" stroke="#edecec" stroke-width="1.51"/><path d="M108,-11L48,-15L66,40Z" fill="#f5f5f5" stroke="#f5f5f5" stroke-width="1.51"/><path d="M88,-50L87,-38L108,-11Z" fill="#f4f3f3" stroke="#f4f3f3" stroke-width="1.51"/><path d="M-8,34L-9,58L35,37Z" fill="#f6f5f5" stroke="#f6f5f5" stroke-width="1.51"/><path d="M35,37L-9,58L15,91Z" fill="#f5f5f4" stroke="#f5f5f4" stroke-width="1.51"/><path d="M25,259L31,316L87,278Z" fill="#cccecd" stroke="#cccecd" stroke-width="1.51"/><path d="M-27,279L31,316L25,259Z" fill="#cccdcc" stroke="#cccdcc" stroke-width="1.51"/><path d="M434,185L424,138L392,154Z" fill="#848988" stroke="#848988" stroke-width="1.51"/><path d="M315,328L374,287L337,268Z" fill="#8e9391" stroke="#8e9391" stroke-width="1.51"/><path d="M87,-38L48,-15L108,-11Z" fill="#f5f4f4" stroke="#f5f4f4" stroke-width="1.51"/><path d="M315,328L367,342L374,287Z" fill="#767b7a" stroke="#767b7a" stroke-width="1.51"/><path d="M282,372L291,313L229,311Z" fill="#919593" stroke="#919593" stroke-width="1.51"/><path d="M184,370L202,390L229,311Z" fill="#8a8e8e" stroke="#8a8e8e" stroke-width="1.51"/><path d="M121,358L202,390L184,370Z" fill="#838888" stroke="#838888" stroke-width="1.51"/><path d="M-8,212L-27,279L25,259Z" fill="#dbdbda" stroke="#dbdbda" stroke-width="1.51"/><path d="M-20,135L-41,177L7,178Z" fill="#ededed" stroke="#ededed" stroke-width="1.51"/><path d="M-55,194L-41,177L-64,129Z" fill="#ecebeb" stroke="#ecebeb" stroke-width="1.51"/><path d="M202,390L282,372L229,311Z" fill="#838887" stroke="#838887" stroke-width="1.51"/><path d="M87,-38L35,-52L48,-15Z" fill="#f6f4f4" stroke="#f6f4f4" stroke-width="1.51"/><path d="M126,-88L88,-50L108,-11Z" fill="#f3f2f2" stroke="#f3f2f2" stroke-width="1.51"/><path d="M48,-15L-8,34L35,37Z" fill="#f7f6f6" stroke="#f7f6f6" stroke-width="1.51"/><path d="M-64,129L-41,177L-20,135Z" fill="#f0efef" stroke="#f0efef" stroke-width="1.51"/><path d="M392,154L424,138L369,98Z" fill="#959a99" stroke="#959a99" stroke-width="1.51"/><path d="M369,98L389,17L336,29Z" fill="#adb1b0" stroke="#adb1b0" stroke-width="1.51"/><path d="M336,29L381,-15L310,-10Z" fill="#bec1bf" stroke="#bec1bf" stroke-width="1.51"/><path d="M431,204L392,154L379,229Z" fill="#878c8b" stroke="#878c8b" stroke-width="1.51"/><path d="M374,287L411,251L379,229Z" fill="#838987" stroke="#838987" stroke-width="1.51"/><path d="M423,76L389,17L369,98Z" fill="#999d9d" stroke="#999d9d" stroke-width="1.51"/><path d="M327,-75L265,-78L273,-29Z" fill="#d9d9d7" stroke="#d9d9d7" stroke-width="1.51"/><path d="M411,251L431,204L379,229Z" fill="#7c8281" stroke="#7c8281" stroke-width="1.51"/><path d="M431,204L434,185L392,154Z" fill="#7e8383" stroke="#7e8383" stroke-width="1.51"/><path d="M460,128L423,76L424,138Z" fill="#7a8080" stroke="#7a8080" stroke-width="1.51"/><path d="M424,138L423,76L369,98Z" fill="#8f9494" stroke="#8f9494" stroke-width="1.51"/><path d="M-41,177L-55,194L-8,212Z" fill="#e6e6e5" stroke="#e6e6e5" stroke-width="1.51"/><path d="M-64,129L-20,135L-78,93Z" fill="#f1f0f0" stroke="#f1f0f0" stroke-width="1.51"/><path d="M-73,207L-27,279L-8,212Z" fill="#dededc" stroke="#dededc" stroke-width="1.51"/><path d="M222,-56L265,-78L185,-63Z" fill="#e6e5e4" stroke="#e6e5e4" stroke-width="1.51"/><path d="M185,-63L126,-88L108,-11Z" fill="#f1f0f0" stroke="#f1f0f0" stroke-width="1.51"/><path d="M327,-75L273,-29L310,-10Z" fill="#d7d7d6" stroke="#d7d7d6" stroke-width="1.51"/><path d="M389,353L367,342L307,351Z" fill="#5f6765" stroke="#5f6765" stroke-width="1.51"/><path d="M307,351L367,342L315,328Z" fill="#757b79" stroke="#757b79" stroke-width="1.51"/><path d="M374,287L407,300L411,251Z" fill="#747b79" stroke="#747b79" stroke-width="1.51"/><path d="M265,-78L126,-88L185,-63Z" fill="#ecebea" stroke="#ecebea" stroke-width="1.51"/><path d="M88,-50L35,-52L87,-38Z" fill="#f5f4f3" stroke="#f5f4f3" stroke-width="1.51"/><path d="M48,-15L-16,-17L-8,34Z" fill="#f6f5f5" stroke="#f6f5f5" stroke-width="1.51"/><path d="M-78,93L-20,135L-9,58Z" fill="#f3f2f2" stroke="#f3f2f2" stroke-width="1.51"/><path d="M389,17L381,-15L336,29Z" fill="#abafae" stroke="#abafae" stroke-width="1.51"/><path d="M409,10L381,-15L389,17Z" fill="#9a9e9e" stroke="#9a9e9e" stroke-width="1.51"/><path d="M367,342L407,300L374,287Z" fill="#696f6d" stroke="#696f6d" stroke-width="1.51"/><path d="M475,243L452,182L431,204Z" fill="#676e6d" stroke="#676e6d" stroke-width="1.51"/><path d="M-76,12L-78,93L-9,58Z" fill="#f5f3f3" stroke="#f5f3f3" stroke-width="1.51"/><path d="M126,-88L35,-52L88,-50Z" fill="#f4f3f2" stroke="#f4f3f2" stroke-width="1.51"/><path d="M434,185L452,182L424,138Z" fill="#757b7a" stroke="#757b7a" stroke-width="1.51"/><path d="M431,204L452,182L434,185Z" fill="#6f7574" stroke="#6f7574" stroke-width="1.51"/><path d="M475,243L431,204L411,251Z" fill="#666d6c" stroke="#666d6c" stroke-width="1.51"/><path d="M423,76L409,10L389,17Z" fill="#919595" stroke="#919595" stroke-width="1.51"/><path d="M468,56L409,10L423,76Z" fill="#7f8484" stroke="#7f8484" stroke-width="1.51"/><path d="M31,316L58,391L87,311Z" fill="#a1a5a4" stroke="#a1a5a4" stroke-width="1.51"/><path d="M121,358L58,391L202,390Z" fill="#808585" stroke="#808585" stroke-width="1.51"/><path d="M9,386L58,391L31,316Z" fill="#8f9393" stroke="#8f9393" stroke-width="1.51"/><path d="M-64,129L-73,207L-55,194Z" fill="#eae9e8" stroke="#eae9e8" stroke-width="1.51"/><path d="M-55,194L-73,207L-8,212Z" fill="#e4e4e3" stroke="#e4e4e3" stroke-width="1.51"/><path d="M-48,312L-12,334L-27,279Z" fill="#b9bab9" stroke="#b9bab9" stroke-width="1.51"/><path d="M-27,279L-12,334L31,316Z" fill="#b8bab9" stroke="#b8bab9" stroke-width="1.51"/><path d="M35,-52L-16,-17L48,-15Z" fill="#f6f5f4" stroke="#f6f5f4" stroke-width="1.51"/><path d="M265,-78L409,-79L126,-88Z" fill="#dddddb" stroke="#dddddb" stroke-width="1.51"/><path d="M372,-49L327,-75L310,-10Z" fill="#c2c3c1" stroke="#c2c3c1" stroke-width="1.51"/><path d="M372,-49L310,-10L381,-15Z" fill="#b5b8b7" stroke="#b5b8b7" stroke-width="1.51"/><path d="M452,182L460,128L424,138Z" fill="#737979" stroke="#737979" stroke-width="1.51"/><path d="M-64,129L-78,93L-73,207Z" fill="#f0efee" stroke="#f0efee" stroke-width="1.51"/><path d="M-76,12L-9,58L-8,34Z" fill="#f6f4f4" stroke="#f6f4f4" stroke-width="1.51"/><path d="M433,-41L372,-49L381,-15Z" fill="#989c9b" stroke="#989c9b" stroke-width="1.51"/><path d="M474,285L475,243L411,251Z" fill="#5e6564" stroke="#5e6564" stroke-width="1.51"/><path d="M367,342L389,353L407,300Z" fill="#565d5c" stroke="#565d5c" stroke-width="1.51"/><path d="M282,372L389,353L307,351Z" fill="#6a7170" stroke="#6a7170" stroke-width="1.51"/><path d="M427,376L389,353L282,372Z" fill="#4b5352" stroke="#4b5352" stroke-width="1.51"/><path d="M-12,334L-5,372L31,316Z" fill="#a0a4a3" stroke="#a0a4a3" stroke-width="1.51"/><path d="M-72,289L-48,312L-27,279Z" fill="#c4c5c4" stroke="#c4c5c4" stroke-width="1.51"/><path d="M-86,363L-5,372L-12,334Z" fill="#949797" stroke="#949797" stroke-width="1.51"/><path d="M-5,372L9,386L31,316Z" fill="#939896" stroke="#939896" stroke-width="1.51"/><path d="M-73,207L-72,289L-27,279Z" fill="#d8d8d6" stroke="#d8d8d6" stroke-width="1.51"/><path d="M-48,312L-86,363L-12,334Z" fill="#a3a5a5" stroke="#a3a5a5" stroke-width="1.51"/><path d="M-86,363L-72,289L-73,207Z" fill="#cacac8" stroke="#cacac8" stroke-width="1.51"/><path d="M409,10L433,-41L381,-15Z" fill="#909594" stroke="#909594" stroke-width="1.51"/><path d="M460,128L468,56L423,76Z" fill="#767c7c" stroke="#767c7c" stroke-width="1.51"/><path d="M474,285L411,251L407,300Z" fill="#5f6765" stroke="#5f6765" stroke-width="1.51"/><path d="M452,182L475,243L460,128Z" fill="#6d7272" stroke="#6d7272" stroke-width="1.51"/><path d="M460,128L491,49L468,56Z" fill="#767c7c" stroke="#767c7c" stroke-width="1.51"/><path d="M-83,-30L-76,12L-16,-17Z" fill="#f5f3f2" stroke="#f5f3f2" stroke-width="1.51"/><path d="M-16,-17L-76,12L-8,34Z" fill="#f6f4f4" stroke="#f6f4f4" stroke-width="1.51"/><path d="M488,323L474,285L407,300Z" fill="#474f4e" stroke="#474f4e" stroke-width="1.51"/><path d="M476,-7L433,-41L409,10Z" fill="#7b8080" stroke="#7b8080" stroke-width="1.51"/><path d="M372,-49L409,-79L327,-75Z" fill="#aaadab" stroke="#aaadab" stroke-width="1.51"/><path d="M468,56L476,-7L409,10Z" fill="#787e7d" stroke="#787e7d" stroke-width="1.51"/><path d="M475,243L491,49L460,128Z" fill="#747979" stroke="#747979" stroke-width="1.51"/><path d="M488,323L491,49L475,243Z" fill="#686f6e" stroke="#686f6e" stroke-width="1.51"/><path d="M474,388L427,376L282,372Z" fill="#333c3b" stroke="#333c3b" stroke-width="1.51"/><path d="M389,353L427,376L407,300Z" fill="#424a49" stroke="#424a49" stroke-width="1.51"/><path d="M477,-62L409,-79L433,-41Z" fill="#7a7f7e" stroke="#7a7f7e" stroke-width="1.51"/><path d="M433,-41L409,-79L372,-49Z" fill="#919595" stroke="#919595" stroke-width="1.51"/><path d="M327,-75L409,-79L265,-78Z" fill="#c3c4c3" stroke="#c3c4c3" stroke-width="1.51"/><path d="M-39,-79L-53,-60L-16,-17Z" fill="#f5f2f2" stroke="#f5f2f2" stroke-width="1.51"/><path d="M-39,-79L-16,-17L35,-52Z" fill="#f5f4f3" stroke="#f5f4f3" stroke-width="1.51"/><path d="M126,-88L-39,-79L35,-52Z" fill="#f6f4f3" stroke="#f6f4f3" stroke-width="1.51"/><path d="M491,49L476,-7L468,56Z" fill="#787e7e" stroke="#787e7e" stroke-width="1.51"/><path d="M-39,-79L-83,-30L-53,-60Z" fill="#f4f2f1" stroke="#f4f2f1" stroke-width="1.51"/><path d="M-53,-60L-83,-30L-16,-17Z" fill="#f4f2f2" stroke="#f4f2f2" stroke-width="1.51"/><path d="M-76,12L-83,-30L-78,93Z" fill="#f5f4f3" stroke="#f5f4f3" stroke-width="1.51"/><path d="M-78,93L-86,363L-73,207Z" fill="#dfdfde" stroke="#dfdfde" stroke-width="1.51"/><path d="M427,376L488,323L407,300Z" fill="#353e3d" stroke="#353e3d" stroke-width="1.51"/><path d="M474,285L488,323L475,243Z" fill="#545b5a" stroke="#545b5a" stroke-width="1.51"/><path d="M-5,372L-86,363L9,386Z" fill="#878b8b" stroke="#878b8b" stroke-width="1.51"/><path d="M-72,289L-86,363L-48,312Z" fill="#aeb0af" stroke="#aeb0af" stroke-width="1.51"/><path d="M-83,-30L-86,363L-78,93Z" fill="#f0efee" stroke="#f0efee" stroke-width="1.51"/><path d="M491,49L477,-62L476,-7Z" fill="#777d7d" stroke="#777d7d" stroke-width="1.51"/><path d="M476,-7L477,-62L433,-41Z" fill="#777c7c" stroke="#777c7c" stroke-width="1.51"/><path d="M427,376L474,388L488,323Z" fill="#212a2a" stroke="#212a2a" stroke-width="1.51"/><path d="M202,390L474,388L282,372Z" fill="#5d6463" stroke="#5d6463" stroke-width="1.51"/></svg>