<svg xmlns="http://www.w3.org/2000/svg" width="1772" height="300"><path d="M931,114L827,73L901,162Z" fill="#ededed" stroke="#ededed" stroke-width="1.51"/><path d="M827,73L832,164L901,162Z" fill="#ededed" stroke="#ededed" stroke-width="1.51"/><path d="M827,73L748,115L832,164Z" fill="#eeeeee" stroke="#eeeeee" stroke-width="1.51"/><path d="M962,13L832,-11L827,73Z" fill="#f0f0f0" stroke="#f0f0f0" stroke-width="1.51"/><path d="M827,73L716,-37L748,115Z" fill="#f1f1f1" stroke="#f1f1f1" stroke-width="1.51"/><path d="M931,114L962,13L827,73Z" fill="#eeeeee" stroke="#eeeeee" stroke-width="1.51"/><path d="M901,162L998,246L931,114Z" fill="#e5e5e5" stroke="#e5e5e5" stroke-width="1.51"/><path d="M931,114L1056,74L962,13Z" fill="#eaeaea" stroke="#eaeaea" stroke-width="1.51"/><path d="M940,288L998,246L901,162Z" fill="#dbdbdb" stroke="#dbdbdb" stroke-width="1.51"/><path d="M998,246L1056,74L931,114Z" fill="#e6e6e6" stroke="#e6e6e6" stroke-width="1.51"/><path d="M832,164L940,288L901,162Z" fill="#e2e3e2" stroke="#e2e3e2" stroke-width="1.51"/><path d="M802,325L940,288L832,164Z" fill="#dadbda" stroke="#dadbda" stroke-width="1.51"/><path d="M832,-11L716,-37L827,73Z" fill="#f2f2f2" stroke="#f2f2f2" stroke-width="1.51"/><path d="M935,-83L845,-86L832,-11Z" fill="#f1f0f0" stroke="#f1f0f0" stroke-width="1.51"/><path d="M935,-83L832,-11L962,13Z" fill="#f0f0f0" stroke="#f0f0f0" stroke-width="1.51"/><path d="M1056,74L1045,10L962,13Z" fill="#e9e9e9" stroke="#e9e9e9" stroke-width="1.51"/><path d="M1045,-75L935,-83L962,13Z" fill="#ececeb" stroke="#ececeb" stroke-width="1.51"/><path d="M748,115L716,249L832,164Z" fill="#e8e9e8" stroke="#e8e9e8" stroke-width="1.51"/><path d="M845,-86L716,-37L832,-11Z" fill="#f2f1f1" stroke="#f2f1f1" stroke-width="1.51"/><path d="M748,115L665,227L716,249Z" fill="#e6e6e6" stroke="#e6e6e6" stroke-width="1.51"/><path d="M716,249L802,325L832,164Z" fill="#dcdddc" stroke="#dcdddc" stroke-width="1.51"/><path d="M716,249L726,314L802,325Z" fill="#d4d6d4" stroke="#d4d6d4" stroke-width="1.51"/><path d="M618,67L665,227L748,115Z" fill="#eeeeee" stroke="#eeeeee" stroke-width="1.51"/><path d="M998,246L1137,241L1056,74Z" fill="#dcdddc" stroke="#dcdddc" stroke-width="1.51"/><path d="M940,288L1028,294L998,246Z" fill="#d1d3d1" stroke="#d1d3d1" stroke-width="1.51"/><path d="M1046,399L1028,294L940,288Z" fill="#c0c2c1" stroke="#c0c2c1" stroke-width="1.51"/><path d="M665,227L726,314L716,249Z" fill="#dadcda" stroke="#dadcda" stroke-width="1.51"/><path d="M1045,10L1045,-75L962,13Z" fill="#eaebea" stroke="#eaebea" stroke-width="1.51"/><path d="M1119,33L1045,-75L1045,10Z" fill="#e8e8e8" stroke="#e8e8e8" stroke-width="1.51"/><path d="M716,-37L618,67L748,115Z" fill="#f1f1f1" stroke="#f1f1f1" stroke-width="1.51"/><path d="M1056,74L1119,33L1045,10Z" fill="#e6e7e6" stroke="#e6e7e6" stroke-width="1.51"/><path d="M1196,95L1119,33L1056,74Z" fill="#e3e3e3" stroke="#e3e3e3" stroke-width="1.51"/><path d="M716,-37L592,-23L618,67Z" fill="#f3f3f3" stroke="#f3f3f3" stroke-width="1.51"/><path d="M845,-86L692,-113L716,-37Z" fill="#f2f1f1" stroke="#f2f1f1" stroke-width="1.51"/><path d="M1138,-148L692,-113L845,-86Z" fill="#efeeee" stroke="#efeeee" stroke-width="1.51"/><path d="M1138,-148L845,-86L935,-83Z" fill="#ecebea" stroke="#ecebea" stroke-width="1.51"/><path d="M1028,294L1137,241L998,246Z" fill="#d0d2d0" stroke="#d0d2d0" stroke-width="1.51"/><path d="M802,325L853,415L940,288Z" fill="#bcbfbd" stroke="#bcbfbd" stroke-width="1.51"/><path d="M1028,294L1170,323L1137,241Z" fill="#c9cbc9" stroke="#c9cbc9" stroke-width="1.51"/><path d="M697,395L853,415L802,325Z" fill="#a8acab" stroke="#a8acab" stroke-width="1.51"/><path d="M853,415L895,420L940,288Z" fill="#a9adab" stroke="#a9adab" stroke-width="1.51"/><path d="M692,-113L592,-23L716,-37Z" fill="#f3f3f3" stroke="#f3f3f3" stroke-width="1.51"/><path d="M726,314L697,395L802,325Z" fill="#bdbfbe" stroke="#bdbfbe" stroke-width="1.51"/><path d="M665,227L604,288L726,314Z" fill="#d9dad9" stroke="#d9dad9" stroke-width="1.51"/><path d="M513,272L604,288L665,227Z" fill="#dcdddc" stroke="#dcdddc" stroke-width="1.51"/><path d="M536,75L665,227L618,67Z" fill="#f0f0f0" stroke="#f0f0f0" stroke-width="1.51"/><path d="M1119,33L1138,-148L1045,-75Z" fill="#e6e6e5" stroke="#e6e6e5" stroke-width="1.51"/><path d="M1137,241L1196,95L1056,74Z" fill="#e0e0e0" stroke="#e0e0e0" stroke-width="1.51"/><path d="M654,382L697,395L726,314Z" fill="#b2b5b4" stroke="#b2b5b4" stroke-width="1.51"/><path d="M895,420L1046,399L940,288Z" fill="#a9acab" stroke="#a9acab" stroke-width="1.51"/><path d="M536,4L536,75L618,67Z" fill="#f3f3f3" stroke="#f3f3f3" stroke-width="1.51"/><path d="M604,288L654,382L726,314Z" fill="#c8cac8" stroke="#c8cac8" stroke-width="1.51"/><path d="M592,-23L536,4L618,67Z" fill="#f3f3f3" stroke="#f3f3f3" stroke-width="1.51"/><path d="M488,-124L536,4L592,-23Z" fill="#f4f4f4" stroke="#f4f4f4" stroke-width="1.51"/><path d="M1046,399L1170,323L1028,294Z" fill="#b5b8b6" stroke="#b5b8b6" stroke-width="1.51"/><path d="M1137,241L1233,230L1196,95Z" fill="#d6d7d6" stroke="#d6d7d6" stroke-width="1.51"/><path d="M1045,-75L1138,-148L935,-83Z" fill="#e8e8e7" stroke="#e8e8e7" stroke-width="1.51"/><path d="M1279,-5L1138,-148L1119,33Z" fill="#e2e3e1" stroke="#e2e3e1" stroke-width="1.51"/><path d="M692,-113L596,-140L592,-23Z" fill="#f3f2f2" stroke="#f3f2f2" stroke-width="1.51"/><path d="M1138,-148L596,-140L692,-113Z" fill="#f1f0ef" stroke="#f1f0ef" stroke-width="1.51"/><path d="M1170,323L1233,230L1137,241Z" fill="#c9cbc9" stroke="#c9cbc9" stroke-width="1.51"/><path d="M1196,95L1279,-5L1119,33Z" fill="#e0e1e0" stroke="#e0e1e0" stroke-width="1.51"/><path d="M472,249L513,272L536,75Z" fill="#e7e8e7" stroke="#e7e8e7" stroke-width="1.51"/><path d="M536,75L513,272L665,227Z" fill="#e8e8e8" stroke="#e8e8e8" stroke-width="1.51"/><path d="M604,288L475,438L654,382Z" fill="#afb3b1" stroke="#afb3b1" stroke-width="1.51"/><path d="M1233,230L1269,87L1196,95Z" fill="#dadbda" stroke="#dadbda" stroke-width="1.51"/><path d="M1170,323L1288,313L1233,230Z" fill="#c3c5c3" stroke="#c3c5c3" stroke-width="1.51"/><path d="M1046,399L1167,394L1170,323Z" fill="#9fa3a2" stroke="#9fa3a2" stroke-width="1.51"/><path d="M1273,443L1167,394L1046,399Z" fill="#878c8b" stroke="#878c8b" stroke-width="1.51"/><path d="M1269,87L1279,-5L1196,95Z" fill="#dcdddc" stroke="#dcdddc" stroke-width="1.51"/><path d="M513,272L475,438L604,288Z" fill="#c6c8c7" stroke="#c6c8c7" stroke-width="1.51"/><path d="M399,161L472,249L536,75Z" fill="#eeeeee" stroke="#eeeeee" stroke-width="1.51"/><path d="M596,-140L488,-124L592,-23Z" fill="#f4f3f3" stroke="#f4f3f3" stroke-width="1.51"/><path d="M536,4L430,-44L536,75Z" fill="#f5f5f5" stroke="#f5f5f5" stroke-width="1.51"/><path d="M1233,230L1354,127L1269,87Z" fill="#d7d8d7" stroke="#d7d8d7" stroke-width="1.51"/><path d="M1269,87L1354,127L1279,-5Z" fill="#dadbda" stroke="#dadbda" stroke-width="1.51"/><path d="M1167,394L1288,313L1170,323Z" fill="#acb0ae" stroke="#acb0ae" stroke-width="1.51"/><path d="M431,-70L430,-44L536,4Z" fill="#f5f5f5" stroke="#f5f5f5" stroke-width="1.51"/><path d="M383,125L399,161L536,75Z" fill="#f1f1f1" stroke="#f1f1f1" stroke-width="1.51"/><path d="M430,-44L383,125L536,75Z" fill="#f4f4f4" stroke="#f4f4f4" stroke-width="1.51"/><path d="M488,-124L431,-70L536,4Z" fill="#f5f4f4" stroke="#f5f4f4" stroke-width="1.51"/><path d="M399,161L426,292L472,249Z" fill="#e2e3e2" stroke="#e2e3e2" stroke-width="1.51"/><path d="M472,249L426,292L513,272Z" fill="#dcdddc" stroke="#dcdddc" stroke-width="1.51"/><path d="M1397,194L1354,127L1233,230Z" fill="#cfd1cf" stroke="#cfd1cf" stroke-width="1.51"/><path d="M399,161L309,299L426,292Z" fill="#e0e1e0" stroke="#e0e1e0" stroke-width="1.51"/><path d="M333,65L383,125L430,-44Z" fill="#f4f4f4" stroke="#f4f4f4" stroke-width="1.51"/><path d="M1351,-47L1297,-134L1279,-5Z" fill="#dbdcda" stroke="#dbdcda" stroke-width="1.51"/><path d="M1279,-5L1297,-134L1138,-148Z" fill="#dededd" stroke="#dededd" stroke-width="1.51"/><path d="M1354,127L1351,-47L1279,-5Z" fill="#dadbda" stroke="#dadbda" stroke-width="1.51"/><path d="M309,299L434,370L426,292Z" fill="#cfd1cf" stroke="#cfd1cf" stroke-width="1.51"/><path d="M426,292L434,370L513,272Z" fill="#d4d6d4" stroke="#d4d6d4" stroke-width="1.51"/><path d="M654,382L475,438L697,395Z" fill="#9a9e9e" stroke="#9a9e9e" stroke-width="1.51"/><path d="M697,395L475,438L853,415Z" fill="#939897" stroke="#939897" stroke-width="1.51"/><path d="M853,415L475,438L895,420Z" fill="#8d9392" stroke="#8d9392" stroke-width="1.51"/><path d="M434,370L475,438L513,272Z" fill="#b6b9b8" stroke="#b6b9b8" stroke-width="1.51"/><path d="M1167,394L1273,443L1288,313Z" fill="#939896" stroke="#939896" stroke-width="1.51"/><path d="M1288,313L1397,194L1233,230Z" fill="#c6c8c6" stroke="#c6c8c6" stroke-width="1.51"/><path d="M895,420L1273,443L1046,399Z" fill="#868b8a" stroke="#868b8a" stroke-width="1.51"/><path d="M475,438L1273,443L895,420Z" fill="#878c8b" stroke="#878c8b" stroke-width="1.51"/><path d="M1332,373L1349,324L1288,313Z" fill="#aaaeab" stroke="#aaaeab" stroke-width="1.51"/><path d="M1273,443L1332,373L1288,313Z" fill="#949997" stroke="#949997" stroke-width="1.51"/><path d="M1349,324L1397,194L1288,313Z" fill="#bfc1bf" stroke="#bfc1bf" stroke-width="1.51"/><path d="M1493,5L1473,-69L1351,-47Z" fill="#d1d3d2" stroke="#d1d3d2" stroke-width="1.51"/><path d="M1442,319L1397,194L1349,324Z" fill="#bcbfbc" stroke="#bcbfbc" stroke-width="1.51"/><path d="M257,-2L333,65L430,-44Z" fill="#f6f6f6" stroke="#f6f6f6" stroke-width="1.51"/><path d="M383,125L295,174L399,161Z" fill="#f1f1f1" stroke="#f1f1f1" stroke-width="1.51"/><path d="M1297,-134L1379,-161L1138,-148Z" fill="#dcdcda" stroke="#dcdcda" stroke-width="1.51"/><path d="M1138,-148L1379,-161L596,-140Z" fill="#e7e7e6" stroke="#e7e7e6" stroke-width="1.51"/><path d="M1351,-47L1379,-161L1297,-134Z" fill="#d8d9d7" stroke="#d8d9d7" stroke-width="1.51"/><path d="M1473,-69L1379,-161L1351,-47Z" fill="#d6d7d5" stroke="#d6d7d5" stroke-width="1.51"/><path d="M333,65L295,174L383,125Z" fill="#f2f2f2" stroke="#f2f2f2" stroke-width="1.51"/><path d="M434,370L260,449L475,438Z" fill="#949998" stroke="#949998" stroke-width="1.51"/><path d="M295,174L309,299L399,161Z" fill="#e7e7e7" stroke="#e7e7e7" stroke-width="1.51"/><path d="M1493,5L1351,-47L1354,127Z" fill="#d6d7d6" stroke="#d6d7d6" stroke-width="1.51"/><path d="M1332,373L1442,319L1349,324Z" fill="#a7aaa8" stroke="#a7aaa8" stroke-width="1.51"/><path d="M1516,372L1442,319L1332,373Z" fill="#999e9b" stroke="#999e9b" stroke-width="1.51"/><path d="M1442,319L1466,251L1397,194Z" fill="#bcbebc" stroke="#bcbebc" stroke-width="1.51"/><path d="M333,65L211,137L295,174Z" fill="#f2f2f2" stroke="#f2f2f2" stroke-width="1.51"/><path d="M295,174L240,217L309,299Z" fill="#e3e4e3" stroke="#e3e4e3" stroke-width="1.51"/><path d="M431,-70L257,-2L430,-44Z" fill="#f6f6f6" stroke="#f6f6f6" stroke-width="1.51"/><path d="M288,-147L257,-2L431,-70Z" fill="#f6f5f5" stroke="#f6f5f5" stroke-width="1.51"/><path d="M1493,5L1354,127L1511,75Z" fill="#cdcfcd" stroke="#cdcfcd" stroke-width="1.51"/><path d="M1511,75L1354,127L1397,194Z" fill="#d1d2d1" stroke="#d1d2d1" stroke-width="1.51"/><path d="M1379,-161L288,-147L596,-140Z" fill="#f1f0f0" stroke="#f1f0f0" stroke-width="1.51"/><path d="M596,-140L288,-147L488,-124Z" fill="#f5f3f3" stroke="#f5f3f3" stroke-width="1.51"/><path d="M488,-124L288,-147L431,-70Z" fill="#f5f4f4" stroke="#f5f4f4" stroke-width="1.51"/><path d="M1568,143L1511,75L1397,194Z" fill="#c4c6c4" stroke="#c4c6c4" stroke-width="1.51"/><path d="M211,137L240,217L295,174Z" fill="#ecedec" stroke="#ecedec" stroke-width="1.51"/><path d="M257,-2L211,137L333,65Z" fill="#f4f4f4" stroke="#f4f4f4" stroke-width="1.51"/><path d="M214,-88L231,-6L257,-2Z" fill="#f6f5f5" stroke="#f6f5f5" stroke-width="1.51"/><path d="M231,-6L211,137L257,-2Z" fill="#f4f4f4" stroke="#f4f4f4" stroke-width="1.51"/><path d="M231,-6L91,117L211,137Z" fill="#f3f3f2" stroke="#f3f3f2" stroke-width="1.51"/><path d="M288,-147L214,-88L257,-2Z" fill="#f6f5f4" stroke="#f6f5f4" stroke-width="1.51"/><path d="M1466,251L1568,143L1397,194Z" fill="#bec1bf" stroke="#bec1bf" stroke-width="1.51"/><path d="M1442,319L1554,291L1466,251Z" fill="#adb0ae" stroke="#adb0ae" stroke-width="1.51"/><path d="M1273,443L1516,372L1332,373Z" fill="#858a88" stroke="#858a88" stroke-width="1.51"/><path d="M1554,291L1568,143L1466,251Z" fill="#afb2b0" stroke="#afb2b0" stroke-width="1.51"/><path d="M1511,75L1584,23L1493,5Z" fill="#c0c2c1" stroke="#c0c2c1" stroke-width="1.51"/><path d="M1493,5L1595,-102L1473,-69Z" fill="#c3c4c3" stroke="#c3c4c3" stroke-width="1.51"/><path d="M118,285L211,331L240,217Z" fill="#dbdcdb" stroke="#dbdcdb" stroke-width="1.51"/><path d="M240,217L211,331L309,299Z" fill="#dadcda" stroke="#dadcda" stroke-width="1.51"/><path d="M309,299L260,449L434,370Z" fill="#afb3b2" stroke="#afb3b2" stroke-width="1.51"/><path d="M475,438L260,449L1273,443Z" fill="#838888" stroke="#838888" stroke-width="1.51"/><path d="M211,331L260,449L309,299Z" fill="#b7bab9" stroke="#b7bab9" stroke-width="1.51"/><path d="M1516,372L1554,291L1442,319Z" fill="#9ca09d" stroke="#9ca09d" stroke-width="1.51"/><path d="M1616,165L1584,23L1568,143Z" fill="#b3b6b5" stroke="#b3b6b5" stroke-width="1.51"/><path d="M1568,143L1584,23L1511,75Z" fill="#babdbc" stroke="#babdbc" stroke-width="1.51"/><path d="M1473,-69L1595,-102L1379,-161Z" fill="#c9cac8" stroke="#c9cac8" stroke-width="1.51"/><path d="M1554,291L1616,165L1568,143Z" fill="#abaead" stroke="#abaead" stroke-width="1.51"/><path d="M1707,268L1616,165L1554,291Z" fill="#9ca09f" stroke="#9ca09f" stroke-width="1.51"/><path d="M1584,23L1595,-102L1493,5Z" fill="#bcbfbe" stroke="#bcbfbe" stroke-width="1.51"/><path d="M1690,-10L1595,-102L1584,23Z" fill="#b0b3b2" stroke="#b0b3b2" stroke-width="1.51"/><path d="M118,-101L116,-50L214,-88Z" fill="#f5f4f3" stroke="#f5f4f3" stroke-width="1.51"/><path d="M214,-88L116,-50L231,-6Z" fill="#f6f5f4" stroke="#f6f5f4" stroke-width="1.51"/><path d="M211,137L118,285L240,217Z" fill="#e6e6e5" stroke="#e6e6e5" stroke-width="1.51"/><path d="M211,331L168,449L260,449Z" fill="#999d9d" stroke="#999d9d" stroke-width="1.51"/><path d="M91,117L118,285L211,137Z" fill="#ebebeb" stroke="#ebebeb" stroke-width="1.51"/><path d="M1273,443L1607,375L1516,372Z" fill="#7b817f" stroke="#7b817f" stroke-width="1.51"/><path d="M1516,372L1607,375L1554,291Z" fill="#878d8b" stroke="#878d8b" stroke-width="1.51"/><path d="M116,-50L91,117L231,-6Z" fill="#f5f4f4" stroke="#f5f4f4" stroke-width="1.51"/><path d="M75,431L168,449L211,331Z" fill="#9ca0a0" stroke="#9ca0a0" stroke-width="1.51"/><path d="M30,77L47,209L91,117Z" fill="#f1f0f0" stroke="#f1f0f0" stroke-width="1.51"/><path d="M288,-147L118,-101L214,-88Z" fill="#f5f3f3" stroke="#f5f3f3" stroke-width="1.51"/><path d="M1715,227L1692,125L1616,165Z" fill="#9ea3a2" stroke="#9ea3a2" stroke-width="1.51"/><path d="M1616,165L1692,125L1584,23Z" fill="#abafae" stroke="#abafae" stroke-width="1.51"/><path d="M1692,125L1690,-10L1584,23Z" fill="#a9acac" stroke="#a9acac" stroke-width="1.51"/><path d="M1690,-10L1660,-153L1595,-102Z" fill="#abaead" stroke="#abaead" stroke-width="1.51"/><path d="M1595,-102L1660,-153L1379,-161Z" fill="#bdbebd" stroke="#bdbebd" stroke-width="1.51"/><path d="M118,285L75,431L211,331Z" fill="#bdbfbe" stroke="#bdbfbe" stroke-width="1.51"/><path d="M91,117L47,209L118,285Z" fill="#e7e7e6" stroke="#e7e7e6" stroke-width="1.51"/><path d="M30,77L91,117L116,-50Z" fill="#f4f3f3" stroke="#f4f3f3" stroke-width="1.51"/><path d="M1788,373L1665,369L1908,454Z" fill="#464e4d" stroke="#464e4d" stroke-width="1.51"/><path d="M1607,375L1665,369L1554,291Z" fill="#808583" stroke="#808583" stroke-width="1.51"/><path d="M-22,26L30,77L116,-50Z" fill="#f5f4f3" stroke="#f5f4f3" stroke-width="1.51"/><path d="M1665,369L1707,268L1554,291Z" fill="#8f9391" stroke="#8f9391" stroke-width="1.51"/><path d="M1806,3L1762,-163L1690,-10Z" fill="#999d9d" stroke="#999d9d" stroke-width="1.51"/><path d="M1707,268L1715,227L1616,165Z" fill="#969b99" stroke="#969b99" stroke-width="1.51"/><path d="M-5,426L75,431L118,285Z" fill="#aaacac" stroke="#aaacac" stroke-width="1.51"/><path d="M-5,426L118,285L-56,292Z" fill="#c6c7c6" stroke="#c6c7c6" stroke-width="1.51"/><path d="M30,77L-51,187L47,209Z" fill="#eeeded" stroke="#eeeded" stroke-width="1.51"/><path d="M-23,-152L-22,26L116,-50Z" fill="#f6f4f3" stroke="#f6f4f3" stroke-width="1.51"/><path d="M-22,26L-51,187L30,77Z" fill="#f2f1f1" stroke="#f2f1f1" stroke-width="1.51"/><path d="M1690,-10L1762,-163L1660,-153Z" fill="#a1a4a3" stroke="#a1a4a3" stroke-width="1.51"/><path d="M1660,-153L1762,-163L1379,-161Z" fill="#b2b4b3" stroke="#b2b4b3" stroke-width="1.51"/><path d="M1806,3L1690,-10L1692,125Z" fill="#9ca0a0" stroke="#9ca0a0" stroke-width="1.51"/><path d="M-56,292L118,285L47,209Z" fill="#dddddc" stroke="#dddddc" stroke-width="1.51"/><path d="M75,431L-91,458L168,449Z" fill="#848988" stroke="#848988" stroke-width="1.51"/><path d="M-22,26L-136,64L-51,187Z" fill="#f2f1f0" stroke="#f2f1f0" stroke-width="1.51"/><path d="M118,-101L-23,-152L116,-50Z" fill="#f5f3f2" stroke="#f5f3f2" stroke-width="1.51"/><path d="M288,-147L-23,-152L118,-101Z" fill="#f5f3f2" stroke="#f5f3f2" stroke-width="1.51"/><path d="M1379,-161L-23,-152L288,-147Z" fill="#f3f2f1" stroke="#f3f2f1" stroke-width="1.51"/><path d="M1715,227L1807,115L1692,125Z" fill="#969b9a" stroke="#969b9a" stroke-width="1.51"/><path d="M1806,234L1807,115L1715,227Z" fill="#8a8f8e" stroke="#8a8f8e" stroke-width="1.51"/><path d="M1806,234L1715,227L1707,268Z" fill="#888c8b" stroke="#888c8b" stroke-width="1.51"/><path d="M1807,115L1806,3L1692,125Z" fill="#949998" stroke="#949998" stroke-width="1.51"/><path d="M1788,373L1806,234L1707,268Z" fill="#7c8280" stroke="#7c8280" stroke-width="1.51"/><path d="M-51,187L-56,292L47,209Z" fill="#e2e2e1" stroke="#e2e2e1" stroke-width="1.51"/><path d="M1665,369L1788,373L1707,268Z" fill="#727876" stroke="#727876" stroke-width="1.51"/><path d="M1908,454L1665,369L1607,375Z" fill="#4f5655" stroke="#4f5655" stroke-width="1.51"/><path d="M-23,-152L-86,-93L-22,26Z" fill="#f5f3f2" stroke="#f5f3f2" stroke-width="1.51"/><path d="M-141,240L-109,319L-56,292Z" fill="#d9d9d7" stroke="#d9d9d7" stroke-width="1.51"/><path d="M1806,3L1877,-110L1762,-163Z" fill="#8e9291" stroke="#8e9291" stroke-width="1.51"/><path d="M1807,115L1859,8L1806,3Z" fill="#8b9090" stroke="#8b9090" stroke-width="1.51"/><path d="M1910,141L1859,8L1807,115Z" fill="#848989" stroke="#848989" stroke-width="1.51"/><path d="M1910,141L1807,115L1806,234Z" fill="#838888" stroke="#838888" stroke-width="1.51"/><path d="M1788,373L1838,357L1806,234Z" fill="#6b7270" stroke="#6b7270" stroke-width="1.51"/><path d="M-141,240L-56,292L-51,187Z" fill="#e0e0de" stroke="#e0e0de" stroke-width="1.51"/><path d="M-56,292L-109,319L-5,426Z" fill="#bfc0be" stroke="#bfc0be" stroke-width="1.51"/><path d="M-151,-27L-136,64L-22,26Z" fill="#f5f3f2" stroke="#f5f3f2" stroke-width="1.51"/><path d="M-136,64L-141,240L-51,187Z" fill="#edeceb" stroke="#edeceb" stroke-width="1.51"/><path d="M-141,240L-91,458L-109,319Z" fill="#c2c4c1" stroke="#c2c4c1" stroke-width="1.51"/><path d="M-109,319L-91,458L-5,426Z" fill="#9ea09f" stroke="#9ea09f" stroke-width="1.51"/><path d="M-5,426L-91,458L75,431Z" fill="#888c8c" stroke="#888c8c" stroke-width="1.51"/><path d="M168,449L-91,458L260,449Z" fill="#818585" stroke="#818585" stroke-width="1.51"/><path d="M260,449L-91,458L1273,443Z" fill="#818787" stroke="#818787" stroke-width="1.51"/><path d="M1859,8L1877,-110L1806,3Z" fill="#898e8e" stroke="#898e8e" stroke-width="1.51"/><path d="M1963,-81L1877,-110L1859,8Z" fill="#808584" stroke="#808584" stroke-width="1.51"/><path d="M-136,64L-151,-27L-141,240Z" fill="#f2f0f0" stroke="#f2f0f0" stroke-width="1.51"/><path d="M-86,-93L-151,-27L-22,26Z" fill="#f5f3f3" stroke="#f5f3f3" stroke-width="1.51"/><path d="M1907,231L1910,141L1806,234Z" fill="#787d7d" stroke="#787d7d" stroke-width="1.51"/><path d="M1838,357L1907,231L1806,234Z" fill="#717775" stroke="#717775" stroke-width="1.51"/><path d="M1838,357L1939,314L1907,231Z" fill="#656c6b" stroke="#656c6b" stroke-width="1.51"/><path d="M2005,170L1974,69L1910,141Z" fill="#747a7a" stroke="#747a7a" stroke-width="1.51"/><path d="M1910,141L1974,69L1859,8Z" fill="#7b8181" stroke="#7b8181" stroke-width="1.51"/><path d="M1838,357L1908,454L1939,314Z" fill="#424a49" stroke="#424a49" stroke-width="1.51"/><path d="M1788,373L1908,454L1838,357Z" fill="#3f4747" stroke="#3f4747" stroke-width="1.51"/><path d="M1273,443L1908,454L1607,375Z" fill="#575e5d" stroke="#575e5d" stroke-width="1.51"/><path d="M-91,458L1908,454L1273,443Z" fill="#767c7b" stroke="#767c7b" stroke-width="1.51"/><path d="M2005,170L1910,141L1907,231Z" fill="#707675" stroke="#707675" stroke-width="1.51"/><path d="M1974,69L1963,-81L1859,8Z" fill="#7b8080" stroke="#7b8080" stroke-width="1.51"/><path d="M1877,-110L1963,-81L1762,-163Z" fill="#848989" stroke="#848989" stroke-width="1.51"/><path d="M1999,270L2005,170L1907,231Z" fill="#686e6e" stroke="#686e6e" stroke-width="1.51"/><path d="M1974,69L2039,17L1963,-81Z" fill="#777d7d" stroke="#777d7d" stroke-width="1.51"/><path d="M1999,270L1907,231L1939,314Z" fill="#616867" stroke="#616867" stroke-width="1.51"/><path d="M2015,388L1999,270L1939,314Z" fill="#545b5a" stroke="#545b5a" stroke-width="1.51"/><path d="M2015,388L2039,17L2005,170Z" fill="#6d7373" stroke="#6d7373" stroke-width="1.51"/><path d="M2005,170L2039,17L1974,69Z" fill="#757b7b" stroke="#757b7b" stroke-width="1.51"/><path d="M1999,270L2015,388L2005,170Z" fill="#606766" stroke="#606766" stroke-width="1.51"/><path d="M1908,454L2015,388L1939,314Z" fill="#343d3c" stroke="#343d3c" stroke-width="1.51"/></svg>